<?xml version="1.0" encoding="utf-8"?>
<!-- Generator: Adobe Illustrator 22.1.0, SVG Export Plug-In . SVG Version: 6.00 Build 0)  -->
<svg version="1.1" id="Layer_1" xmlns="http://www.w3.org/2000/svg" xmlns:xlink="http://www.w3.org/1999/xlink" x="0px" y="0px"
	 viewBox="0 0 483 168" style="enable-background:new 0 0 483 168;" xml:space="preserve">
<style type="text/css">
	.st0{fill:#54565B;}
	.st1{fill:#009848;}
</style>
<g>
	<path class="st0" d="M274.6,89.7c-1.9-3.1,0.6-5.7,0.6-5.7l22-22.7c2.5-2.6-1.1-2.6-1.1-2.6h-20.5c-3.6,0-6.1,2.6-6.1,2.6
		l-20.3,21.6c-2.5,2.6-2.5-1-2.5-1V34.7c0-3.6-3.6-3.6-3.6-3.6h-15.5c-3.5,0-3.5,3.5-3.5,3.5v98.7c0,3.6,3.6,3.6,3.6,3.6h15.4
		c3.5,0,3.5-3.5,3.5-3.5v-17.3c0-3.6,2.6-6.1,2.6-6.1l7.3-6.8l18.2,30.6c1.8,3.1,5.4,3.1,5.4,3.1h19.5c3.6,0,1.7-3.1,1.7-3.1
		L274.6,89.7L274.6,89.7z M207.9,133.3V62.2c0-3.6-3.6-3.6-3.6-3.6h-15.6c-3.6,0-3.6,3.6-3.6,3.6v71.1c0,3.6,3.6,3.6,3.6,3.6h15.6
		C207.9,136.9,207.9,133.3,207.9,133.3L207.9,133.3z M207.3,44.7V34.5c0,0,0-3.5-3.5-3.5h-15.2c0,0-3.5,0-3.5,3.5v10.2
		c0,0,0,3.5,3.5,3.5h15.3C203.9,48.2,207.3,48.2,207.3,44.7L207.3,44.7z M168.4,133.3V34.8c0-3.6-3.6-3.6-3.6-3.6h-15.9
		c-3.6,0-3.6,3.6-3.6,3.6v98.5c0,3.6,3.6,3.6,3.6,3.6h15.9C168.4,136.9,168.4,133.3,168.4,133.3L168.4,133.3z M132.7,129.1
		c0,0,2-2.3-0.3-4.3l-12.7-11.1c5.7-8.5,9.1-18.6,9.1-29.6c0-29.2-23.7-52.9-52.9-52.9S23,54.9,23,84.1c0,29.2,23.7,52.9,52.9,52.9
		c10.7,0,20.6-3.2,29-8.7l14,12.1c0,0,2.3,2,4.3-0.3L132.7,129.1L132.7,129.1z M106.4,84c0,16.9-13.7,30.6-30.6,30.6
		S45.2,100.9,45.2,84s13.7-30.6,30.6-30.6C92.7,53.5,106.4,67.1,106.4,84L106.4,84z"/>
	<path class="st1" d="M451.1,130.2l-17-14.3c5.9-9.4,9.4-20.5,9.4-32.4c0-33.5-27.2-60.7-60.7-60.7S322.1,50,322.1,83.5
		s27.2,60.7,60.7,60.7c13,0,25.1-4.1,35-11.1l18.1,15.2c0,0,2.7,2.3,5-0.4l10.8-12.8C451.6,135.1,453.8,132.4,451.1,130.2
		L451.1,130.2z M420.1,83.5c0,20.6-16.7,37.3-37.3,37.3c-20.6,0-37.3-16.7-37.3-37.3c0-20.6,16.7-37.3,37.3-37.3
		C403.4,46.2,420.1,62.9,420.1,83.5L420.1,83.5z"/>
	<path class="st0" d="M358.8,83.5c0-13.2,10.7-23.9,23.9-23.9c13.2,0,23.9,10.7,23.9,23.9c0,13.2-10.7,23.9-23.9,23.9
		S358.8,96.7,358.8,83.5L358.8,83.5z"/>
	<g>
		<path class="st0" d="M440.9,40.7c0-3.7,3-6.6,6.6-6.6c3.7,0,6.6,3,6.6,6.6s-3,6.6-6.6,6.6S440.9,44.3,440.9,40.7z M447.5,34.9
			c-3.1,0-5.6,2.5-5.6,5.7s2.4,5.7,5.6,5.7s5.6-2.5,5.6-5.7C453,37.5,450.7,34.9,447.5,34.9z M446,44.7h-0.9v-8.1h2.9
			c1.4,0,2.5,0.7,2.5,2.2c0,1.3-0.7,2.1-1.9,2.2l2.3,3.6h-1.1l-2.1-3.6h-1.6v3.7H446z M446,40.3h1.8c1.1,0,1.8-0.2,1.8-1.5
			c0-1-0.8-1.4-1.8-1.4H446V40.3z"/>
	</g>
</g>
</svg>
